<?xml version="1.0" encoding="UTF-8"?>
<svg version="1.1" xmlns="http://www.w3.org/2000/svg" width="100" height="100">
<path d="M0 0 C0.69480469 0.59683594 1.38960938 1.19367187 2.10546875 1.80859375 C2.74871094 2.35386719 3.39195313 2.89914063 4.0546875 3.4609375 C12.43851321 11.19006098 17.67807662 21.42129182 18.421875 32.796875 C19.02349738 47.95878454 14.82151905 59.70680038 4.48046875 70.93359375 C2.81640625 72.69140625 2.81640625 72.69140625 1.10546875 73.80859375 C-0.98046875 73.67578125 -0.98046875 73.67578125 -2.89453125 72.80859375 C-3.55453125 71.81859375 -4.21453125 70.82859375 -4.89453125 69.80859375 C-5.88453125 70.21078125 -5.88453125 70.21078125 -6.89453125 70.62109375 C-7.88453125 71.01296875 -8.87453125 71.40484375 -9.89453125 71.80859375 C-10.49910156 72.08445312 -11.10367188 72.3603125 -11.7265625 72.64453125 C-16.9592825 74.89449764 -20.32380535 75.15635002 -25.89453125 73.80859375 C-30.86279439 71.27759177 -32.82001244 68.92855443 -34.89453125 63.80859375 C-35.1875 60.16015625 -35.1875 60.16015625 -35.08203125 56.43359375 C-35.04142578 54.56574219 -35.04142578 54.56574219 -35 52.66015625 C-34.96519531 51.71914062 -34.93039063 50.778125 -34.89453125 49.80859375 C-38.33377819 51.51342623 -41.77087592 53.22253876 -45.20703125 54.93359375 C-46.71777222 55.68539917 -46.71777222 55.68539917 -48.2590332 56.45239258 C-54.2553338 59.44933033 -60.17160657 62.51458678 -65.96875 65.8828125 C-67.89453125 66.80859375 -67.89453125 66.80859375 -70.89453125 66.80859375 C-63.99660019 48.95512513 -63.99660019 48.95512513 -57.25390625 45.78515625 C-53.87616737 44.48958517 -50.43073631 43.57344709 -46.89453125 42.80859375 C-50.19453125 41.15859375 -53.49453125 39.50859375 -56.89453125 37.80859375 C-57.01953125 34.93359375 -57.01953125 34.93359375 -56.89453125 31.80859375 C-56.23453125 31.14859375 -55.57453125 30.48859375 -54.89453125 29.80859375 C-50.06155121 32.44753306 -45.28244997 35.15541088 -40.5625 37.9921875 C-39.66208984 38.52650391 -38.76167969 39.06082031 -37.83398438 39.61132812 C-35.97286941 40.71690174 -34.11882849 41.83445735 -32.27148438 42.96289062 C-30.93053711 43.75083008 -30.93053711 43.75083008 -29.5625 44.5546875 C-28.76094482 45.03607178 -27.95938965 45.51745605 -27.13354492 46.01342773 C-24.91077028 47.08061103 -24.91077028 47.08061103 -22.81762695 45.97680664 C-22.18300537 45.59129639 -21.54838379 45.20578613 -20.89453125 44.80859375 C-16.54874039 44.2554931 -14.6139279 44.31879177 -10.95703125 46.80859375 C-8.1861877 50.83891164 -8.48761527 53.00698517 -8.89453125 57.80859375 C-8.23453125 57.80859375 -7.57453125 57.80859375 -6.89453125 57.80859375 C-7.21969737 51.52204879 -8.05090757 48.23999414 -12.89453125 43.80859375 C-16.39720092 41.93342716 -19.52632215 40.67828812 -23.51953125 41.05859375 C-25.89453125 40.80859375 -25.89453125 40.80859375 -28.70703125 37.99609375 C-29.79118252 36.61700964 -30.85198372 35.21939196 -31.89453125 33.80859375 C-32.44496094 33.06738281 -32.99539062 32.32617188 -33.5625 31.5625 C-34.85360749 29.79789467 -36.13530796 28.02638745 -37.41015625 26.25 C-41.20487942 20.96863443 -45.09638309 15.75726033 -48.97070312 10.53417969 C-57.89453125 -1.53835702 -57.89453125 -1.53835702 -57.89453125 -4.19140625 C-39.16935811 -13.3105213 -16.94647062 -13.1995123 0 0 Z M-26.89453125 49.80859375 C-26.89453125 52.11859375 -26.89453125 54.42859375 -26.89453125 56.80859375 C-26.56453125 56.80859375 -26.23453125 56.80859375 -25.89453125 56.80859375 C-25.89453125 54.49859375 -25.89453125 52.18859375 -25.89453125 49.80859375 C-26.22453125 49.80859375 -26.55453125 49.80859375 -26.89453125 49.80859375 Z M-20.89453125 61.80859375 C-20.89453125 62.13859375 -20.89453125 62.46859375 -20.89453125 62.80859375 C-18.58453125 62.80859375 -16.27453125 62.80859375 -13.89453125 62.80859375 C-13.89453125 62.47859375 -13.89453125 62.14859375 -13.89453125 61.80859375 C-16.20453125 61.80859375 -18.51453125 61.80859375 -20.89453125 61.80859375 Z " fill="#5A5A5E" transform="translate(76.89453125,13.19140625)"/>
<path d="M0 0 C5.26798356 2.53139648 10.41111792 5.18424972 15.4296875 8.18359375 C16.326875 8.71791016 17.2240625 9.25222656 18.1484375 9.80273438 C19.99547105 10.91016065 21.83648189 12.02768336 23.671875 13.15429688 C24.56132813 13.67958984 25.45078125 14.20488281 26.3671875 14.74609375 C27.16237793 15.22747803 27.95756836 15.7088623 28.77685547 16.20483398 C30.98552558 17.2719001 30.98552558 17.2719001 33.07470703 16.16821289 C33.71005371 15.78270264 34.34540039 15.39719238 35 15 C39.34579086 14.44689935 41.28060335 14.51019802 44.9375 17 C47.70834355 21.03031789 47.40691598 23.19839142 47 28 C47.66 28 48.32 28 49 28 C48.95875 29.0725 48.9175 30.145 48.875 31.25 C48.9925745 34.77723487 49.34847907 36.061073 51 39 C44.74156443 42.92600935 39.50160136 45.88966416 31.8984375 44.66015625 C27.09715874 43.28450897 24.27046989 40.95225068 21.83203125 36.60546875 C20.11567353 31.23077109 20.64811611 25.56758508 21 20 C17.56075306 21.70483248 14.12365533 23.41394501 10.6875 25.125 C9.68033936 25.62620361 8.67317871 26.12740723 7.63549805 26.64379883 C1.63919745 29.64073658 -4.27707532 32.70599303 -10.07421875 36.07421875 C-12 37 -12 37 -15 37 C-8.10206894 19.14653138 -8.10206894 19.14653138 -1.359375 15.9765625 C2.01836388 14.68099142 5.46379494 13.76485334 9 13 C5.7 11.35 2.4 9.7 -1 8 C-1.125 2.25 -1.125 2.25 0 0 Z M29 20 C29 22.31 29 24.62 29 27 C29.33 27 29.66 27 30 27 C30 24.69 30 22.38 30 20 C29.67 20 29.34 20 29 20 Z M35 32 C35 32.33 35 32.66 35 33 C37.31 33 39.62 33 42 33 C42 32.67 42 32.34 42 32 C39.69 32 37.38 32 35 32 Z " fill="#37ADDF" transform="translate(21,43)"/>
<path d="M0 0 C1.32 0.33 2.64 0.66 4 1 C4.06058594 1.66386719 4.12117188 2.32773437 4.18359375 3.01171875 C4.79863507 9.54908081 4.79863507 9.54908081 6 16 C6.99 16 7.98 16 9 16 C9 16.66 9 17.32 9 18 C9.969375 18.12375 10.93875 18.2475 11.9375 18.375 C13.4534375 18.684375 13.4534375 18.684375 15 19 C15.33 19.66 15.66 20.32 16 21 C15.67 21.99 15.34 22.98 15 24 C15.66 24.33 16.32 24.66 17 25 C15 27 15 27 12.06640625 27.1171875 C10.91011719 27.03726563 9.75382812 26.95734375 8.5625 26.875 C6.83193359 26.77832031 6.83193359 26.77832031 5.06640625 26.6796875 C2 26 2 26 0.1328125 24.109375 C-3.21331649 17.87865205 -2.83679583 9.03338487 -1 2.375 C-0.67 1.59125 -0.34 0.8075 0 0 Z " fill="#29AAE0" transform="translate(45,59)"/>
<path d="M0 0 C0.66 0 1.32 0 2 0 C1.95875 1.0725 1.9175 2.145 1.875 3.25 C1.9925745 6.77723487 2.34847907 8.061073 4 11 C-1.69612538 14.57326384 -6.20765947 16.88865016 -13 17 C-16.5 16.0625 -16.5 16.0625 -19 15 C-15.32589215 13.82428549 -11.83070817 13.92633254 -8 14 C-8 13.34 -8 12.68 -8 12 C-8 10.68 -8 9.36 -8 8 C-8.66 7.34 -9.32 6.68 -10 6 C-8.906875 5.938125 -7.81375 5.87625 -6.6875 5.8125 C-2.8525473 5.40122736 -2.8525473 5.40122736 -1.1875 2.4375 C-0.795625 1.633125 -0.40375 0.82875 0 0 Z " fill="#39ACDA" transform="translate(68,71)"/>
<path d="M0 0 C-5.93169624 3.18464019 -11.3895667 5.65343025 -18 7 C-17.67 6.01 -17.34 5.02 -17 4 C-14.50501555 2.92777528 -12.14149255 2.05489333 -9.5625 1.25 C-8.86833984 1.01667969 -8.17417969 0.78335938 -7.45898438 0.54296875 C-2.26974023 -1.13487011 -2.26974023 -1.13487011 0 0 Z " fill="#5EBADD" transform="translate(33,57)"/>
<path d="M0 0 C0.33 0 0.66 0 1 0 C1.66 2.31 2.32 4.62 3 7 C0.35261084 8.4606285 -0.89448334 9 -4 9 C-2.80100302 5.9168649 -1.52299523 2.93720508 0 0 Z " fill="#65BFE1" transform="translate(10,71)"/>
<path d="M0 0 C2.475 0.495 2.475 0.495 5 1 C4.01 2.485 4.01 2.485 3 4 C2.34 4 1.68 4 1 4 C1 5.98 1 7.96 1 10 C0.67 10 0.34 10 0 10 C0 6.7 0 3.4 0 0 Z " fill="#78C7E5" transform="translate(51,60)"/>
<path d="M0 0 C1.98 0.99 1.98 0.99 4 2 C3.67 5.3 3.34 8.6 3 12 C2.67 12 2.34 12 2 12 C0.875 4.25 0.875 4.25 2 2 C1.34 2 0.68 2 0 2 C0 1.34 0 0.68 0 0 Z " fill="#53B3D8" transform="translate(47,58)"/>
<path d="M0 0 C1.98 0.99 3.96 1.98 6 3 C3 4 3 4 0 4 C-0.33 4.99 -0.66 5.98 -1 7 C-0.67 4.69 -0.34 2.38 0 0 Z " fill="#5CB4DC" transform="translate(21,43)"/>
</svg>
